<svg xmlns="http://www.w3.org/2000/svg" version="1.1" xmlns:xlink="http://www.w3.org/1999/xlink" width="512" height="512" x="0" y="0" viewBox="0 0 48 48" style="enable-background:new 0 0 512 512" xml:space="preserve" class=""><g><path d="M1 9V4a3.003 3.003 0 0 1 3-3h5a1 1 0 0 1 0 2H4a1.001 1.001 0 0 0-1 1v5a1 1 0 0 1-2 0Zm43-8h-5a1 1 0 0 0 0 2h5a1.001 1.001 0 0 1 1 1v5a1 1 0 0 0 2 0V4a3.003 3.003 0 0 0-3-3ZM9 45H4a1.001 1.001 0 0 1-1-1v-5a1 1 0 0 0-2 0v5a3.003 3.003 0 0 0 3 3h5a1 1 0 0 0 0-2Zm37-7a1 1 0 0 0-1 1v5a1.001 1.001 0 0 1-1 1h-5a1 1 0 0 0 0 2h5a3.003 3.003 0 0 0 3-3v-5a1 1 0 0 0-1-1Zm-8-2.248A3.252 3.252 0 0 1 34.752 39H13.247A3.252 3.252 0 0 1 10 35.752v-.553a13.38 13.38 0 0 1 9.715-12.846 6.857 6.857 0 0 1-2.624-5.391v-1.09a6.91 6.91 0 0 1 13.818 0v1.09a6.857 6.857 0 0 1-2.624 5.39A13.381 13.381 0 0 1 38 35.2ZM23.962 21.833h.076a4.877 4.877 0 0 0 4.871-4.871v-1.09a4.91 4.91 0 0 0-9.818 0v1.09a4.877 4.877 0 0 0 4.87 4.871ZM36 35.2a11.38 11.38 0 0 0-11.367-11.367h-1.267A11.379 11.379 0 0 0 12 35.199v.553A1.25 1.25 0 0 0 13.248 37h21.504A1.25 1.25 0 0 0 36 35.752Z" fill="#ffff" opacity="1" data-original="#ffff" class=""></path></g></svg>